<?xml version="1.0" encoding="UTF-8"?>
<svg id="Layer_1" xmlns="http://www.w3.org/2000/svg" version="1.1" viewBox="0 0 999.53 1039.06">
  <!-- Generator: Adobe Illustrator 29.8.3, SVG Export Plug-In . SVG Version: 2.1.1 Build 3)  -->
  <defs>
    <style>
      .st0 {
        fill: #ff5722;
      }
    </style>
  </defs>
  <path d="M345.51,546.48c3.99,4.8-5.59,3.76-5.84,4.05-2.33,2.71,4.69,14.67-1.17,15.9-5.53,1.16-5.41-8.7-4.97-12-2.06-2.19-30.53,4.08-35.21,5.81-10.94,4.03,13.36,8.73,16.84,9.57,84.32,20.6,226.2,19.18,313.36,10.62,29.38-2.89,58.62-8.19,87.01-16.01-2.05-7.36-36.59-11.49-38-9.98.18,4.74,1.23,12.5-5.99,12l-.26-12.75-7.75-7.21c12.05-6.1,21.82-4.19,34.4-1.44,9.55,2.09,33.2,8.22,33.05,20.03l-31.51,128.33c-5.26,13.37-32.56,17.87-45.58,20.42-82.79,16.2-224.35,16.31-306.77-1.95-10.85-2.4-29.87-6.07-35.34-16.66l-31.96-135.4c8.87-11.33,57.06-23.69,65.69-13.31v-.02ZM345.53,638.44l-2-16.01-19.99,2,1.95-7.03,16.06-2.98-4.01-17.97,9.03,1.95,3.03,13.99,23.95-1.94v5.95l-21.96,4.1,1.93,17.93h-7.99c3.44.67,8.43,2.96,13.3,3.71,14.01,2.17,28.56,3.29,42.71,4.3l-4.02-52-99.97-16.01,12.97,52c3.36,3.96,28.7,6.76,35.01,7.99v.02ZM713.52,578.45l-99.87,16.1-6.12,51.87,55.99-6-5.9-2.07,1.77-17.75c-5.07-2.04-10.61-1.97-15.88-3.19-2.12-.49-7.75-.31-5.96-3.95,3.78-7.71,19.56,1.45,23.76-1.25,2.48-1.61.57-14.04,5.45-15.55l6.77-.21-4,17.97c1.42,1.52,19.79.46,18,8l-19.97.03-2.01,15.97,33.92-7.06,14.06-52.92h-.01ZM497.53,598.44l-88-1.98,5.99,51.99,82.01,1.99v-52ZM513.53,598.44v52l82.01-1.99c-1.54-17.57,5.15-34.46,4-52.02l-86.01,2.01ZM409.53,706.42c-4.8-8.36-1.78-43.04-7.92-47.06l-88.07-14.91,11.13,37.87,26.73-8.02-1.86-11.84,10-.03v10.02c6.53.51,12.45-2.11,18.98-2.19,6.6-.08,20.93,3.63,9.07,7.16-15.25,4.54-35.89,6.46-52.09,10.02-2.2.48-6.47.03-5.96,2.98l79.98,16.01h.01ZM659.76,674.21l27.89,7.39,7.86-37.16-86,14.98c-6.01,3.55-4.53,38.51-7.97,47.01,14.76-1.98,29.72-3.78,44.36-6.62,2.59-.5,39.78-7.22,35.63-11.35l-61.99-12.05c-.55-3.98-.37-3.28,2.47-4.49,8.07-3.44,17.97-1.08,26.28.38l4.37-9.98,8.87.13-1.77,11.75h0ZM497.53,664.44l-78.97-4.03c-3.7.16,4.64,40.94,3.24,45.76l75.73,4.27v-46ZM513.53,664.44v46l73.79-2.22c1.95-14.71,5.22-29.98,6.24-44.79.22-3.19.28-3.34-3.07-3.07l-76.96,4.08h0Z"/>
  <path d="M707.53,262.44c-29.03-11.02-60.21-16.45-91.02-19.98-75.98-8.7-164.02-8.42-239.7,2.26-25.67,3.62-50.87,9.13-75.28,17.72v-57c23.43-14.51,55.74-19.61,83.02-22.98,75.34-9.3,164.57-8.95,239.96,0,26.78,3.18,61.05,7.36,83.02,22.98v57Z"/>
  <path d="M805.53,1002.44l-2-128h127c8.6,0,25.97,13.8,30.12,21.88,7.09,13.79,6.75,56.16,3.98,72.23-2.35,13.69-9.27,24.42-22.34,29.66-2.36.95-12.27,4.23-13.77,4.23h-123,.01ZM897.54,944.43c25.15,3.65,50-33,25.95-50.95-19.26-14.37-51.34,11.07-44.97,32.94,9.71-5.08,19.26-27.38,31.52-25.64,9.12,1.3,13.74,8.38,10,17.12-1.82,4.26-25.46,23.96-22.5,26.52h0ZM896.95,918.76c-5,.77-33.73,29.83-33.3,32.43l3.91,4.32c2.16,1.53,3.73,1.01,5.93,0,1.67-.77,24.05-23.35,26.02-26.09,3.6-5.01,6.82-12.1-2.56-10.66ZM860.99,930.86c-20.15,4.06-37.64,37.27-14.16,51.27,18.38,10.96,43.85-9.37,44.47-28.4l-4.74-3.29c-7.51,8.85-20.96,30.15-34.15,22.12-21.01-12.81,19.02-35.87,19.09-39.12-2.79-4.02-6.29-3.42-10.5-2.58h0Z"/>
  <path d="M43.53,1002.44v-82h37l3,3v47h73c.48,0,7.7-3.95,8.4-4.61,11.57-10.97,9.86-61.39-10.4-61.39H43.53v-30h127c7.8,0,24.9,9.39,29.87,16.13,13.86,18.82,13.4,79.48-1.83,97.9-5.55,6.71-21.77,13.96-30.04,13.96H43.53Z"/>
  <path d="M677.53,922.44h96v28h-96v22h103c4.9,6.66,4.83,23.57,0,30h-139v-128h137c4.84,3.36,4.01,25.12,1.13,27.13l-98.85,1.15-3,3-.28,16.72Z"/>
  <path d="M479.53,1002.44h-42l-11.81-22.71-84.87-.97-14.32,23.68h-39l66.97-126.03c1.54-2.05,3.71-1.82,5.91-2.09,9.37-1.13,34.82-1.1,44.23,0,2.88.34,5.25.2,6.68,3.32l68.21,124.79h0ZM409.53,950.44l-26.02-50c-11.78,15.02-19.63,32.95-27.98,50h54Z"/>
  <path d="M525.53,250.44v106l30.01-3.99-.02-11c9.14-5.36,6.85,8,9.87,10.13s20.52,1.08,25.7,4.3l22.43,10.55.95-16.05c7.1-6.3,4.93,4.64,9.04,6.05l2-15.01-1.96-16.97-2.05,9.98-7.97-3.99-2.03,27.99c-13.73-2.98-1.98-42.31,4.01-36.01l1.99,6v-19.99l-5.77-1.05c-6.66-10.68,2.91-38.57,7.78-32.94l-1.97,31.98,7.97-5.98c.96,1.13-.78,16.78.04,20.96.77,3.94,4.07,5.32,5.44,8.58,3.88,9.21,2.12,30.14-11.59,29.57-2.42,13.48,3.2,11.35,6.23,16.26,7.72,12.53-4.76,62.6-12.33,75.41-2.24,3.8-6.56,4.4-7.91,6.59-3.1,5.04-2.4,15.99-8.9,20.6l-4.95-9.97c-2.24,9.72-8.06,17.35-6,27.98,2.1-.36,4.39-7.76,7.97-3.98,3.2,3.37-9.42,23.86-7.97,26l3.94-2.02c5.99,4.26-6.94,38.3-17.95,33.02l12.02-23.98-6.13-2.06c-1.65-9.01,6.21-17.01,6.21-21.87,0-1.26-3.3-1.1-4.13-2.48-4.11-6.83,1.49-15.3,2-22.62-34.1,10.61-22.42,47.26-40.99,69.99-3.99-8.18,4.55-17.79,5.07-25.22.25-3.62-3.6-2.29-4.03-4.11-1.49-6.24,1.82-14.56.29-21.28,25.95-17.08,62.85-43.64,70.74-75.32,18.23-73.15-72.35-64.07-115.6-45.6l-39.46,19.52-2.03-27.98-1.99,7.98c-5.4,5.97-7.86-20.27-8.02-23.06-.41-6.82-.36-12.08,8.03-10.92l-.12,20.77c11.21,2.53,11.05,13.4,12.14,23.21l17.99-10.99v-123h42v.02Z"/>
  <path d="M883.52,414.43l-20,.02c-11.83-169.87-154.41-307.75-322.11-324.89l-1.88-19.13c180.19,16.87,329,162.59,343.99,344Z"/>
  <path d="M471.54,90.45c-167.33,12.45-313.56,155.36-324,324l-20.01-.02c12.87-179.57,163.63-326.03,341.09-343.48,4.97.85,2.34,15.55,2.92,19.5h0Z"/>
  <path d="M463.54,804.43l-.02,20.01c-177.99-17.26-322.96-168.04-336-346l19.14,1.86c13.74,166.54,149.86,308.97,316.88,324.12h0Z"/>
  <path d="M881.54,478.43c-8.78,177.72-158.03,328.74-334.01,346.02v-20.02c166.79-14.59,304.81-159.47,315.99-326h18.02Z"/>
  <polygon points="533.53 970.44 621.53 970.44 621.53 1002.44 495.53 1002.44 495.53 874.44 530.53 874.44 533.53 877.44 533.53 970.44"/>
  <path class="st0" d="M549.13,373.04c43.72-3.58,65.09,15.84,34.36,54.36-23.3,29.21-81.89,58.28-118.99,61.01-45.56,3.35-62.98-18.67-31.99-55.99,24.76-29.82,78.13-56.23,116.62-59.38ZM543.08,383c-28.78.23-74.74,22.75-92.58,45.41-21.92,27.85-2.4,41.62,27.51,37.51,26.58-3.65,67.51-24.67,83.17-46.83s8.81-36.31-18.1-36.09h0Z"/>
  <rect x="233.53" y="874.44" width="38" height="128"/>
  <path d="M525.53,826.44h-42v-85c0-1.12,3.42-3.15,5.08-3.07l38.08,2.05c1.2,1.43-1.16,2.52-1.16,3.02v83h0Z"/>
  <polygon points="525.53 572.44 483.53 572.44 483.53 514.44 525.53 502.44 525.53 572.44"/>
  <rect x="777.53" y="436.44" width="128" height="20"/>
  <rect x="105.53" y="436.44" width="128" height="20"/>
  <rect x="495.53" y="48.44" width="20" height="110"/>
  <path d="M183.52,478.43c4.89,68.18,33.56,128.5,76.06,180.95,4.66,5.76,20.36,19.31,21.04,24.92.39,3.22,1.49,3.6-2.1,6.09-58.86-54.32-98.5-131.25-102.99-211.97h7.99Z"/>
  <path d="M835.52,478.43c-5.35,81-45.75,160.38-105.97,214.01-.63-4.38.1-7.2,1.83-11.15,2.89-6.61,26.81-30.84,33.79-40.21,34.74-46.69,57.56-104.39,62.38-162.64h7.97Z"/>
  <path d="M835.52,414.45h-7.97c-5.07-68.58-35.5-130.11-78.99-182.04-6.87-8.21-19.39-13.76-17.02-25.96,3.77-.87,4.74,2.14,6.99,3.99,7.92,6.49,18.32,18.89,24.94,27.06,40.12,49.48,69.14,112.69,72.04,176.95h.01Z"/>
  <path d="M279.52,206.45c.51,4.09-.37,7.15-2.25,10.73-4.63,8.82-27.3,29.67-35.41,40.59-33.05,44.48-54.84,101.11-58.34,156.68h-7.98c2.64-70.13,37.88-142.74,85.94-193.06,2.03-2.12,15.96-17.27,18.04-14.94Z"/>
  <path class="st0" d="M470.53,496.44c23.45-2.37,61.7-19.37,81.62-32.38,18.96-12.39,40.11-30.42,48.38-51.64,1.82,11.7-9.45,26.58-16.95,35.07-31.37,35.52-99.46,65.78-146.45,52.33-2.09-.6-6.05-.45-5.6-3.38,12.57-.91,26.64,1.25,39,0h0Z"/>
  <path d="M471.52,118.45l-3.37,7.62c-34.47,4.13-68.35,14-99.97,28.03-17.44,7.74-32.26,20.68-52.66,22.32,7.49-8.73,20.37-14.79,30.65-20.32,37.97-20.42,82.1-35.34,125.34-37.65h.01Z"/>
  <path d="M693.53,174.42c-21.06-.49-38.04-14.25-56.65-22.33-29.95-13-61.52-21.4-93.93-26.07l-3.42-7.56c27.21.69,55.48,8.62,81.03,17.95,25.34,9.26,51.04,22.34,72.96,38.02h.01Z"/>
  <path d="M687.53,724.46c-19.57,16.45-48.59,29.6-72.96,38.02-20,6.91-40.82,11.57-61.85,14.24-1.98.25-6.41,2.86-7.18-1.31-.63-3.38,3.55-5.04,5.97-5.99,11.68-4.63,33.1-6.75,47.06-10.94,10.89-3.27,21.83-7.26,32.3-11.7,18.58-7.89,36.08-22.53,56.67-22.31h-.01Z"/>
  <path d="M463.52,776.43c-44.49-2.71-88.89-19.96-127.33-41.65-4.74-2.67-11.44-6.01-14.66-10.32,18.21-1.84,29.83,9.89,44.65,16.33,24.42,10.61,47.39,18.41,73.33,24.67,8.06,1.95,26.01.62,24.01,10.97h0Z"/>
  <path d="M369.51,550.44c-6.8-7.49-13.9-15.06-22.92-20.06-10.02-5.56-29.46-8.52-36.1-13.9-7.75-6.29-6.56-19.14,2.5-21.69,19.76-5.56,53.81,37.22,56.52,55.66h0Z"/>
  <path d="M641.55,548.44c4.65-17.74,32.24-53.61,51.09-54.12,12.91-.35,18.14,14.49,7.94,22.16-7.17,5.39-25.49,7.51-36.38,13.63-8.93,5.02-14.9,12.04-22.65,18.33h0Z"/>
  <path d="M675.53,358.44c4.36-8.64,4.45-16.15,5.98-26-4.58,2.43-2.81,7.87-9.97,6.01l2.07-22.98c-14.01-2.49-5.83-23.52-4.33-33.89l8.26-1.14c.76-.71-2.55-17.58,4.96-16,7.27,6.85-.78,17.3,1.02,26-7.16,1.82-5.31-3.44-9.97-6.01l-2,28c3.9-1.87,4.59-10.2,10.02-4.5l1.94,4.49,2.03-31.98c11.71,1.38,8.3,26.6,3.85,32.85-3.05,4.28-8.38,1.73-9.92,8.2-2.21,9.33,5.92,6.67,7.69,12.31,2.8,8.96-1.05,24.67-8.66,30.62-4.68.94-2.81-3.09-2.97-5.98-.05.11-1.83-.55-2.07,1.19-1.16,8.43,2.2,25.14-9.92,26.8l-1.99-7.98c-2.5,9.79-2.6,20.41-4.02,29.99l4.15-7.88,5.84-.12c.31,1.9-.37,4.3,0,6,.04-.11,1.43.18,1.99-1.34l6.98-28.64c6.62,8,4.01,36.64-8.98,32.95-.18-.95.22-2.03.01-2.97-.04.11-1.36-.17-1.99,1.34-3.21,7.67-.49,23.33-12,24.65-.11-1.98.11-4-.01-5.99-.04.11-1.64.04-2.12,1.21-2.78,6.9-4.25,15.34-3.86,22.79l7.97-3.99c1.73,1.94-7.37,26.01-9.58,29.4-1.73,2.65-2.37,5.4-6.4,4.58l5.99-25.98-6.13-1.08c.16-11.73,1.6-28.36,14.11-32.92.13,1.98-.1,4.01.02,6,2.22-6.06,2.93-10.75,4-18l-5.7-3.29c-2.08-6.39.49-21.21,4.72-26.68,7.94-10.26,6.72-.32,8.97-18.03-9.77,2.09-5.51-25.39-2.14-30.65.8-1.25,5.91-3.63,6.12-3.35-1.08,11.33-2.54,22.71-3.98,34l4.15-7.88,5.84-.12c.14,1.99-.11,4.01,0,6h.03Z"/>
  <path d="M385.53,328.44c-.19-5.78-4.19-29.85,2.98-28l5,5.99-2-27.98-5,5.99c-8.04,2.1-3.3-22.68-6.99-27.99l5.06-1.5c8.43,3.16,2.91,14.88,5.37,19.09,1,1.72,7.39,2.02,9.15,9.83,1.69,7.48,3.22,26.77-7.6,25.59,2.05,3.32,1.06,10.02,2.51,12.5.99,1.68,6.34,1.98,8.6,8.4.9,2.57,3,14.49,2.95,17.12-.19,9.86-7.46,10.08-8.06,12.37-2,7.61,6.86,20.82-1.98,23.6-4.69-3.66-7.63-33.1-5.98-35.02,6.96-1.48,3.78,7.25,7.97,7.98l-2-29.98-1.99,7.98h-2.97c-2.17-2.11-2.13-4.36-5.02-5.99.36,10.83-.86,21.34,1.99,31.99-10.07,1.42-11.56-28-9.05-32.06,2.38-3.14,4.46-1.39,7.06.07v.02Z"/>
  <path d="M443.53,352.44c-7.61-5.12-9.21-18.72-7.88-26.89,1.12-6.9,6.36-8.72,7.47-12.53,1.91-6.53-1.25-15.57,2.57-22.57l5.89,1.11,1.94-19.12-9.98,1.98v-25.98c9.12-.15,4.79,9.53,5.94,14.6.43,1.91,8.45,3.19,9.93,12.51,1.07,6.77,2.39,27.35-7.88,22.88v28h-5.99l-.03-11.99h-1.98v37.99h0Z"/>
  <path d="M557.53,292.44l-2.99,7.99c-7.08-6.64-9.14-31.54,2.98-33.98l-.13,22.77,7.9,4.45c-.61,8.07,2.63,23.34-1.67,29.86-2.42,3.67-6.1,2.07-6.1-.1v-31h.01Z"/>
  <path d="M381.53,498.44c-.46-1.33.34-4.19-.46-6.46-2.81-7.94-6.7-15.6-9.54-23.52,7.1-5.57,20.34,25.44,13.97,31.98-.42.34-3.08-1.4-3.97-2,.94,2.73,4.76,12.68,6.3,13.64.52.32,3.53-1.43,5.71-.77,8.64,2.63,15.02,20.12,17.93,28.16-.1,3.5-8.34-.94-5.92,3.95,5.58,11.26,12.65,5.58,17.92,7.96,2.59,1.17,19.3,15.99,16.06,19.06-7.95.89-11.59-7.82-17-11.98l-1.98,7.98c-10.63-7.36-20.88-16.43-24.96-29.01.49-5.71,9.9,2,7.91-3.94-1.48-4.42-8.41-10.55-10.98-15.03l-1,6.01c-3.33,1.11-8.99-5-8.01.99,1.25,7.64,11.71,15.11,14.02,22.97-4.43,3.5-18.38-12.67-19.56-17.39-3.26-13.02,3.67-12.89,3.68-13.67,0-1.24-5.21-13.35-6-13.94-1.02-.76-4.24.73-6.12.06-9.82-3.5-18.11-24.08-11-33.03l11.03,27.98,1.98-6.01c6.67-1.6,5.97,3.32,9.99,6.02h0Z"/>
  <path d="M629.51,278.45l-1.99,6.01-6.02-1.2c.93-5.18-2.43-27.62,3.06-28.81,7.29-1.58,4.12,14.25,5.38,18.58.86,2.95,4.88,4.98,6.09,7.91,3.92,9.51,2.03,24.02-5.5,31.46-4.72-2.97-1.74-4.43-1.6-7.53.4-8.81,1-17.6.58-26.42h0Z"/>
  <path d="M343.53,360.44c-.18-2.34-.64-34.22-5.98-30l-6.01,6.01c1.08-5.19-7.82-28.53-.98-30,8.06.85,4.61,16.43,7.4,19.56.86.97,4.7.73,6.66,2.26,4.71,3.69,9.71,28.38,2.94,33.29l-4.03-1.12c.68,8.68,3.11,17.11,1.99,25.99-5.94,7.1-12.44-31.44-9.98-33.98l7.99,7.99Z"/>
  <path d="M363.53,450.44c-2.17-8.03-3.56-17.76-6.02-25.99l-4.98,9.95c-2.94-.02-7.75-21.84-8.11-25.89-.32-3.65-2.22-5.21,2.11-8.03,5.89,2.51,6,20.54,7.25,21.71.81.75,5.75-.12,8.91,2.07,3.81,2.64,15,31.19,2.87,30.14.51-2.6-.83-2.76-2.03-3.96,1.66,6.15,11.19,27.17,4.97,29.98-3.88,1.75-3.03-3.76-4.01-5.87-1.92-4.15-11.39-25.68-8.95-28.1,5.53-1.15,5.12,1.09,7.99,3.99Z"/>
  <path d="M338.83,281.1c5.54,9.78,7.83,25.37,1.7,35.3-3.93,0-4.01-29.07-5.02-33.95-4.56,2.59-.93,10.1-9.97,7.98,2.34-4.73-5.8-27.79,2.96-25.98,6.12,3.13,3.8,9.61,6.14,13.97.73,1.37,3.69,1.8,4.19,2.68h0Z"/>
  <path d="M567.94,266.05c.6,1.02,4.45,1.49,5.73,3.18,4.6,6.1,1.12,23.41-.2,31.18l-5.92.02,1.02-28.02-9.02,2.02v-25.98l6.1.88,1.58,2.41c1.31,4.3-1,11.4.72,14.31h0Z"/>
  <path d="M677.53,478.42c3.69-8.79,16.12-29.1,26.92-28.03,4.65.46,8.86,5.53,6.18,10.06l-33.1,17.97h0Z"/>
  <path d="M331.51,478.44c-4.88-4.91-36.75-15.02-31.14-24.03,8.61-13.83,31.15,13.82,31.14,24.03Z"/>
  <path d="M405.53,404.44c-1.26-10.68-2.22-21.38-3.98-32,7.37,1.24,9.07,10.55,9.76,17.21.36,3.48,2.52,20.25-5.78,14.79.48,4.04-.02,14.91,2.25,17.74.15.19,2.7-1.24,4.75.1,6.86,4.52,4.89,10.54,0,16.15l-3.01-13.98-1.98,6h-5.96l-6.03-34c8.43-2.14,5.91,5.3,9.99,7.99h-.01Z"/>
  <path d="M433.53,518.44c-.38,3.21.57,5.71-3,7.96-12.55-15.39-25.82-29.14-28.98-49.95l13.15,21.82c7.08,7.06,12.73,12.58,18.83,20.17.23-1.95-.18-4.03.02-6,11.53,2.65,19.41,19.27,16.99,29.99-2.07-1.77-4.4-5.3-7.01-5.99,2.14,4.45,7.42,15.65,10.91,18.21,3.75,2.74,19.74-2.44,17.07,15.79l-12.99-13.99c-2.34,5.51,5.87,10.87,7.01,15.97-6.61,5.33-30.47-28.06-27.99-35.97,1.87.25,4.4-.43,5.99,0-4.57-9.52-2.12-8.2-10-18h0Z"/>
  <path d="M565.53,538.44c-1.85.61-3.03,2.91-5.99,1.99-.36-3.48,0-6.66.94-10.04.67-2.39,11.75-23.84,15.04-19.94,2.77,8.62-4.27,11.37-6.41,16.57-1.49,3.62-2.25,8.73-3.58,11.42,2.55-.84,4.66-2.88,7.99-1.99,2.68,2.66-15.52,31.95-18.41,33.54-2.16,1.19-5.14.24-7.57.44l3.97-9.99-13.98,7.98c.52-15.16,16.37-11.6,18.94-13.89,3.04-2.72,7.03-12.02,9.06-16.09h0Z"/>
  <path d="M619.52,510.45c3.74,3.89-15.46,23.91-15.99,29.97l7.02-6,5.97,6.01,16.99-23.99c4.23,8.01-9.9,31.26-16.98,32.07l-3.99-4.07-20.04,21.98-4.93-2.99,2.98-6.99c-6.08,4.54-10.36,14.6-19,13.98-3.5-3.33,14.15-20.02,19.03-20.08l3.95,4.08c13.17-8.14,4.53-16.88,8.57-27.44,1.12-2.92,12.53-20.6,16.43-16.54h0Z"/>
  <path d="M343.53,412.42c-9.04,6.99-20.45-30.72-8.99-35.97,5.03,11.34,1.95,24.87,8.99,35.97Z"/>
  <path d="M397.5,422.45c1.33,1.27,6.85,31.46,6.01,35.99-7.99-3.68-10.92-15.55-11.55-23.61-.18-2.34.87-16.83,5.54-12.38Z"/>
  <path d="M637.53,504.42l.02-7.97-12.34,27.64-7.68.32,15.98-31.13,8,3.14,10.99-23.98c8.23,6.29-7.48,37.36-14.97,31.96v.02Z"/>
  <path d="M441.53,266.44v34c-4.67.96-3.21-.56-4.5-2.56-4.77-7.4-7.31-29.6,4.5-31.44Z"/>
  <path d="M445.53,393.44c.18,1.97,3.44,5.51,1.99,8.99-5.43,5.93-9.61-22.32-9.58-25.01.06-5.11,2.25-13.06,7.59-14.98.67,10.06-.92,21.08,0,31Z"/>
  <path d="M323.52,280.45l2,35.98c-5.69,6.87-16.81-36.61-2-35.98h0Z"/>
  <path d="M333.52,364.43c-12.28.8-13.52-35.67-6.99-35.95l6.99,35.95Z"/>
  <path d="M571.37,348.31l-5.83.12,2.01-33.99c12.19,7.63,7.5,22.52,3.82,33.87Z"/>
  <path d="M381.52,310.43c-6.34,7.28-13.66-33.43-2.98-35.98l2.98,35.98Z"/>
  <path d="M389.52,374.44l6.01,33.98c-7.14,5.19-11.41-14.72-11.84-19.23s-1.04-16.06,5.83-14.75Z"/>
  <path d="M667.5,424.45c4.48,4.29.32,33.39-9.95,33.99-.96-1.26,4.8-27.28,5.92-31.09.86-2.91-1.11-3.48,4.03-2.9h0Z"/>
  <path d="M353.55,410.44l-6-36c11.17,6.16,16.92,27.32,6,36Z"/>
  <path d="M459.5,350.43c-2.92,2.81-3.62-.17-3.97-2.96-1.36-10.66.55-22.31-1.99-33.03,11.89-1.05,8.5,33.54,5.96,35.98h0Z"/>
  <path d="M555.52,314.45c-.99,9.87-.85,21.4-1.98,31.03-.33,2.83-1.14,5.69-3.98,2.95-2.05-9.47-6.73-31.08,5.96-33.98h0Z"/>
  <path d="M437.52,550.43c-4.65,4.77-23.22-25.32-17.97-31.99,4.49,1.3,19.27,30.66,17.97,31.99Z"/>
  <path d="M603.55,470.44c10.54,3.76-2.37,35.61-7.02,35.96-4.4.33-1.28-5.41-.95-6.88,2.21-9.69,6.98-19,7.97-29.08Z"/>
  <path d="M355.53,458.42c-13.51-1.25-14.93-20.97-13.99-31.97,3.16-.59,4.39.67,5.54,3.44,3.22,7.72,2.65,20.78,8.45,28.53h0Z"/>
  <path d="M639.53,466.46c-4.51,8.67-7.09,19.36-11.08,28-1.39,3,.29,4.94-4.91,3.97-3.17-5.36,8.5-38.1,15.99-31.97Z"/>
  <path d="M289.27,496.19c-12.69,7.95-17.57-18.32-3.04-13.51,4.71,1.56,6.15,11.56,3.04,13.51Z"/>
  <path d="M724.83,482.68c12.58-4.21,12.09,19.27-1.29,12.77-5.76-2.8-3.53-11.16,1.29-12.77Z"/>
  <polygon points="221.54 510.43 197.54 514.43 199.53 507.44 218.59 502.73 221.54 510.43"/>
  <path d="M813.41,508.6l.13,2.84c.13,3.27.54,3.33-2.89,2.92-6.75-.8-13.67-5.15-21.13-3.93v-5.98l23.89,4.15h0Z"/>
  <path d="M463.52,516.43l5.99,28.01c-5.66-4.21-11.17-18.41-11.95-25.07-.6-5.15,3.55-2.5,5.96-2.94Z"/>
  <polygon points="793.51 574.44 773.49 565.38 773.55 558.44 794.65 568.38 793.51 574.44"/>
  <path d="M232.97,560.83c4.3-.76,8.52,1.99,4.57,4.62-1.88,1.25-12.54,5.65-15.38,6.65-1.93.68-5.79,4-6.62-.68-.74-4.16,14.33-10.04,17.43-10.59Z"/>
  <path d="M265.54,442.45v7.98c-6.62-.13-21.52,2.79-17-8l17,.02Z"/>
  <path d="M745.52,450.43v-7.97c23.98-2.75,24.07,10.71,0,7.97Z"/>
  <path d="M237.51,332.44l-21.96-10.97c2.98-7.12,26.92,4.96,21.96,10.97Z"/>
  <path d="M813.52,384.43l-21.98,4.01,1.15-6.18c5.79-1.3,11.62-3.17,17.53-3.58l3.3,5.75h0Z"/>
  <path d="M219.54,382.45c2.79,12.18-14.75,1.25-20.68,2.02l-1.32-6.02,22,4Z"/>
  <path d="M793.46,318.45l2.07,5.96-21.99,6.02c-4.34-3.88,16.93-12.61,19.92-11.98h0Z"/>
  <path d="M763.51,628.44l-19.94-13c2.28-2.59,2.38-3.6,5.95-2.02,3.17,1.4,18.1,10.35,13.99,15.02Z"/>
  <path d="M745.54,278.43c-2.45-2.24,15.63-19.98,19.95-10.99-2.96,2.26-17.19,13.51-19.95,10.99Z"/>
  <path d="M265.52,278.43c-3.19,2.94-15.88-10.02-19.98-10.98l4.99-4.92c1.23,2.34,18.51,12.66,14.99,15.9h0Z"/>
  <path d="M265.52,612.45c2.14,2.23-.45,4.82-2.44,6.6-1.29,1.15-14.65,10.36-15.54,9.38l2.89-8.1c3.08.13,12.34-10.75,15.09-7.88Z"/>
  <path d="M455.29,398.21l-5.74,2.23.98-13.96c3.95,2.94,6.26,6.77,4.76,11.73h0Z"/>
  <path d="M417.53,570.42l-8.13-.85-1.85-9.13c3.82,2.19,7.78,6.15,9.98,9.98Z"/>
  <path d="M603.52,562.45l-2.2,7.79-5.78.19v-2.96c2.45-2.36,4.14-5.77,7.98-5.02h0Z"/>
  <path class="st0" d="M535.16,388.98c22.74-1.43,31.38,10.08,17.2,29.28-15.16,20.52-62.05,43.87-87.35,39.69-20.29-3.36-17.51-17.38-7.42-30.46,14.41-18.67,54.36-37.05,77.58-38.51h0Z"/>
</svg>